<svg enable-background="new 0 0 50 50" viewBox="0 0 50 50" xmlns="http://www.w3.org/2000/svg"><g fill="#d91f26"><path d="m24.6 36.7h4.2l-1.1-4.5h-3.1z"/><path d="m32 19h4.4v4.4h-4.4z"/><path d="m29 23.4v-4.4h-4.4v4.4h.9l-.1-.4 1.1.4z"/><path d="m24.6 30.1h2.6l-1.1-4.4h-1.5z"/><path d="m29.2 38.2h-22v-20.8h32.1v11.2l3.2 1.3v-18.9h-8.5v1.7c0 1.2-1 2.3-2.3 2.3h-.2c-1.2 0-2.3-1-2.3-2.3v-1.7h-14.4v1.7c0 1.2-1 2.3-2.3 2.3h-.2c-1.2 0-2.3-1-2.3-2.3v-1.7h-6v30.4h26.1z"/><path d="m31.7 13.6c.7 0 1.2-.6 1.2-1.2v-6.5c0-.7-.6-1.2-1.2-1.2-.7 0-1.2.6-1.2 1.2v6.5c-.1.7.5 1.2 1.2 1.2zm-19.3 0c.7 0 1.2-.6 1.2-1.2v-6.5c0-.7-.6-1.2-1.2-1.2-.7 0-1.2.6-1.2 1.2v6.5c-0 .7.5 1.2 1.2 1.2z"/><path d="m9.9 19h4.4v4.4h-4.4z"/><path d="m9.9 25.7h4.4v4.4h-4.4z"/><path d="m17.3 19h4.4v4.4h-4.4z"/><path d="m9.9 32.2h4.4v4.4h-4.4z"/><path d="m17.3 32.2h4.4v4.4h-4.4z"/><path d="m36.4 25.7h-4.4l4.4 1.8z"/><path d="m17.3 25.7h4.4v4.4h-4.4z"/></g><path d="m28.9 26.9 4.3 16.9 3.4-5.4 6 6.7s1.4.5 2.1-.3.4-2 .4-2l-6.1-6.7 6-2.6z" fill="#d6242a"/></svg>